# xmcd CD database file
#
# Track frame offsets:
#	150
#	14797
#	34147
#	50760
#	66582
#	85380
#	100677
#	120187
#	138300
#	151260
#	171797
#	185685
#	204382
#	220442
#
# Disc length: 3258 seconds
#
# Revision: 0
# Processed by: cddbd v1.5.2PL0 Copyright (c) Steve Scherf et al.
# Submitted via: CDex 1.51
#
DISCID=cb0cb80e
DTITLE=Krisanthi Pappas - Centennial Tribute To George and Ira Gershwin
DYEAR=1997
DGENRE=Jazz
TTITLE0=I Got Rhythm
TTITLE1=Embraceable You
TTITLE2=A Foggy Day
TTITLE3=If I Had Only Known
TTITLE4=(Our) Love Is Here To Stay
TTITLE5=They All Laughed
TTITLE6=Nice Work If You Can Get It
TTITLE7=They Can't Take That Away From Me
TTITLE8=Oh, What A Day
TTITLE9=I've Got A Crush On You
TTITLE10=Fascinating Rhythm
TTITLE11=Someone To Watch Over Me
TTITLE12=Let's Call The Whole Thing Off
TTITLE13=Summertime
EXTD=YEAR: 1997
EXTT0=
EXTT1=
EXTT2=
EXTT3=
EXTT4=
EXTT5=
EXTT6=
EXTT7=
EXTT8=
EXTT9=
EXTT10=
EXTT11=
EXTT12=
EXTT13=
PLAYORDER=
